# This file uses centimeters as units for non-parametric coordinates.

v -2.736506 9.009450 0.000000
v 2.736506 9.009450 -0.000000
v -5.495828 1.480096 0.000000
v 5.495828 1.480096 -0.000000
v -2.745574 1.480096 -4.755129
v -4.019635 -0.868080 0.000000
v -2.008106 -0.868080 -3.477890
v 2.745574 1.480096 -4.755129
v 2.008106 -0.868080 -3.477890
v 4.019635 -0.868080 -0.000000
v -1.367088 9.009450 -2.367694
v -3.585624 5.090958 0.000000
v -1.791285 5.090958 -3.102372
v 1.367088 9.009450 -2.367694
v 1.791285 5.090958 -3.102372
v 3.585624 5.090958 -0.000000
v 2.745574 1.480096 4.755129
v 2.008106 -0.868080 3.477890
v 0.000000 0.000000 0.000000
v -2.745574 1.480096 4.755129
v -2.008106 -0.868080 3.477890
v 1.367088 9.009450 2.367694
v 1.791285 5.090958 3.102372
v -1.367088 9.009450 2.367694
v -1.791285 5.090958 3.102372
v -5.985326 15.985062 0.000000
v 5.985326 15.985062 -0.000000
v -2.990115 15.985062 -5.178655
v -5.078764 12.288907 0.000000
v -2.537220 12.288907 -4.394275
v 2.990115 15.985062 -5.178655
v 2.537220 12.288907 -4.394275
v 5.078764 12.288907 -0.000000
v -3.594128 19.260143 0.000000
v -1.795534 19.260143 -3.109730
v 1.795534 19.260143 -3.109730
v 3.594128 19.260143 -0.000000
v 2.990115 15.985062 5.178655
v 2.537220 12.288907 4.394275
v -2.990115 15.985062 5.178655
v -2.537220 12.288907 4.394275
v 1.795534 19.260143 3.109730
v 0.000000 21.000000 0.000000
v -1.795534 19.260143 3.109730
vt 0.424220 1.000000
vt 0.424220 0.500000
vt 0.247855 0.000000
vt 0.247855 0.500000
vt 0.247855 0.166697
vt 0.095695 0.000000
vt 0.095695 0.166697
vt 0.247855 0.333303
vt 0.095695 0.333303
vt 0.095695 0.500000
vt 0.424220 0.166697
vt 0.331148 1.000000
vt 0.331148 0.166697
vt 0.424220 0.333303
vt 0.331148 0.333303
vt 0.331148 0.500000
vt 0.247855 0.666697
vt 0.095695 0.666697
vt 0.000000 0.000000
vt 0.247855 0.833303
vt 0.095695 0.833303
vt 0.424220 0.666697
vt 0.331148 0.666697
vt 0.424220 0.833303
vt 0.331148 0.833303
vt 0.671349 0.000000
vt 0.671349 0.500000
vt 0.671349 0.166697
vt 0.538477 0.000000
vt 0.538477 0.166697
vt 0.671349 0.333303
vt 0.538477 0.333303
vt 0.538477 0.500000
vt 0.794901 1.000000
vt 0.794901 0.166697
vt 0.794901 0.333303
vt 0.794901 0.500000
vt 0.671349 0.666697
vt 0.538477 0.666697
vt 0.671349 0.833303
vt 0.538477 0.833303
vt 0.794901 0.666697
vt 1.000000 1.000000
vt 0.794901 0.833303
vt 0.000000 0.166697
vt 0.000000 0.333303
vt 0.331148 0.000000
vt 0.424220 0.000000
vt 0.247855 1.000000
vt 0.095695 1.000000
vt 0.000000 0.500000
vt 0.000000 0.666697
vt 0.000000 0.833303
vt 1.000000 0.500000
vt 0.794901 0.000000
vt 1.000000 0.166697
vt 1.000000 0.333303
vt 0.671349 1.000000
vt 0.538477 1.000000
vt 1.000000 0.666697
vt 1.000000 0.833303
vn 0.000000 1.000000 0.000000
vn -0.696813 0.717253 -0.000000
vn -0.317036 0.772870 0.549691
vn -0.388217 -0.121971 0.913461
vn -0.977623 -0.210363 0.000000
vn -0.615579 0.338623 0.711616
vn -0.924057 0.367965 -0.103535
vn 0.320048 -0.206562 -0.924609
vn 0.958907 -0.270426 -0.085832
vn 0.615579 0.338623 -0.711616
vn 0.923832 0.338840 0.178107
vn 0.326847 -0.039053 -0.944270
vn 0.989103 -0.121367 -0.083340
vn 0.337975 -0.869792 -0.359492
vn 0.355483 -0.934683 0.000000
vn -0.479996 -0.869915 0.113367
vn -0.999202 -0.039802 0.003323
vn -0.281303 -0.826459 -0.487683
vn -0.595216 0.074731 -0.800083
vn 0.000000 -1.000000 -0.000000
vn -0.406804 0.324645 -0.853883
vn -0.488487 -0.210193 -0.846876
vn -0.496374 -0.039806 0.867196
vn -0.141986 -0.869771 0.472587
vn 0.337975 -0.869792 0.359492
vn 0.502116 -0.039733 0.863887
vn 0.500189 -0.210146 0.840030
vn 0.307789 0.338575 0.889176
vn 0.696813 0.717253 0.000000
vn 0.317036 0.772870 -0.549691
vn 0.405469 0.265685 -0.874647
vn 0.998801 0.048960 -0.000000
vn 0.595555 -0.413902 -0.688476
vn 0.907322 -0.420437 0.000000
vn -0.917052 -0.382739 0.111921
vn -0.986604 0.109769 -0.120683
vn -0.453414 -0.420128 -0.786072
vn -0.564795 0.290267 -0.772497
vn -0.254037 0.736834 -0.626531
vn -0.554090 0.265671 0.788925
vn -0.377226 -0.443366 0.813097
vn 0.595555 -0.413902 0.688476
vn 0.477375 0.202444 0.855061
vn 0.254037 0.736834 0.626531
f 43/43/1 34/34/2 44/44/3
f 24/24/4 1/1/5 25/25/6
f 25/25/6 1/1/5 12/12/7
f 14/14/8 2/2/9 15/15/10
f 15/15/10 2/2/9 16/16/11
f 8/8/12 4/4/13 9/9/14
f 9/9/14 4/4/13 10/10/15
f 6/6/16 3/3/17 7/7/18
f 7/7/18 3/3/17 5/5/19
f 19/19/20 6/6/16 7/7/18
f 5/5/19 8/8/12 7/7/18
f 7/7/18 8/8/12 9/9/14
f 9/9/14 19/45/20 7/7/18
f 10/10/15 19/46/20 9/9/14
f 12/47/7 1/48/5 13/13/21
f 13/13/21 1/48/5 11/11/22
f 3/3/17 12/47/7 5/5/19
f 5/5/19 12/47/7 13/13/21
f 11/11/22 14/14/8 13/13/21
f 13/13/21 14/14/8 15/15/10
f 15/15/10 8/8/12 13/13/21
f 13/13/21 8/8/12 5/5/19
f 16/16/11 4/4/13 15/15/10
f 15/15/10 4/4/13 8/8/12
f 3/49/17 6/50/16 20/20/23
f 20/20/23 6/50/16 21/21/24
f 10/10/15 4/4/13 18/18/25
f 18/18/25 4/4/13 17/17/26
f 19/51/20 10/10/15 18/18/25
f 18/18/25 17/17/26 21/21/24
f 21/21/24 17/17/26 20/20/23
f 19/52/20 18/18/25 21/21/24
f 6/50/16 19/53/20 21/21/24
f 2/2/9 22/22/27 16/16/11
f 16/16/11 22/22/27 23/23/28
f 23/23/28 17/17/26 16/16/11
f 16/16/11 17/17/26 4/4/13
f 22/22/27 24/24/4 23/23/28
f 23/23/28 24/24/4 25/25/6
f 25/25/6 20/20/23 23/23/28
f 23/23/28 20/20/23 17/17/26
f 12/12/7 3/49/17 25/25/6
f 25/25/6 3/49/17 20/20/23
f 43/54/1 37/37/29 36/36/30
f 31/31/31 27/27/32 32/32/33
f 32/32/33 27/27/32 33/33/34
f 29/29/35 26/26/36 30/30/37
f 30/30/37 26/26/36 28/28/38
f 29/29/35 30/30/37 1/48/5
f 1/48/5 30/30/37 11/11/22
f 28/28/38 31/31/31 30/30/37
f 30/30/37 31/31/31 32/32/33
f 32/32/33 14/14/8 30/30/37
f 30/30/37 14/14/8 11/11/22
f 33/33/34 2/2/9 32/32/33
f 32/32/33 2/2/9 14/14/8
f 34/55/2 43/56/1 35/35/39
f 26/26/36 34/55/2 28/28/38
f 28/28/38 34/55/2 35/35/39
f 43/57/1 36/36/30 35/35/39
f 36/36/30 31/31/31 35/35/39
f 35/35/39 31/31/31 28/28/38
f 27/27/32 31/31/31 37/37/29
f 37/37/29 31/31/31 36/36/30
f 26/58/36 29/59/35 40/40/40
f 40/40/40 29/59/35 41/41/41
f 33/33/34 27/27/32 39/39/42
f 39/39/42 27/27/32 38/38/43
f 22/22/27 2/2/9 39/39/42
f 39/39/42 2/2/9 33/33/34
f 39/39/42 38/38/43 41/41/41
f 41/41/41 38/38/43 40/40/40
f 24/24/4 22/22/27 41/41/41
f 41/41/41 22/22/27 39/39/42
f 29/59/35 1/1/5 41/41/41
f 41/41/41 1/1/5 24/24/4
f 43/60/1 42/42/44 37/37/29
f 42/42/44 38/38/43 37/37/29
f 37/37/29 38/38/43 27/27/32
f 43/61/1 44/44/3 42/42/44
f 44/44/3 40/40/40 42/42/44
f 42/42/44 40/40/40 38/38/43
f 26/58/36 40/40/40 34/34/2
f 34/34/2 40/40/40 44/44/3
